0
SECTION
2
HEADER
9
$INSUNITS
70
4
9
$ACADVER
1
AC1014
9
$HANDSEED
5
FFFF
0
ENDSEC
0
SECTION
2
TABLES
0
TABLE
2
VPORT
5
8
100
AcDbSymbolTable
0
ENDTAB
0
TABLE
2
LTYPE
5
5
100
AcDbSymbolTable
0
LTYPE
5
14
100
AcDbSymbolTableRecord
100
AcDbLinetypeTableRecord
2
BYBLOCK
70
0
0
LTYPE
5
15
100
AcDbSymbolTableRecord
100
AcDbLinetypeTableRecord
2
BYLAYER
70
0
0
ENDTAB
0
TABLE
2
LAYER
5
2
100
AcDbSymbolTable
70
2
0
LAYER
5
50
100
AcDbSymbolTableRecord
100
AcDbLayerTableRecord
2
0
70
0
6
CONTINUOUS
0
ENDTAB
0
TABLE
2
STYLE
5
3
100
AcDbSymbolTable
70
1
0
STYLE
5
11
100
AcDbSymbolTableRecord
100
AcDbTextStyleTableRecord
2
STANDARD
70
0
0
ENDTAB
0
TABLE
2
VIEW
5
6
100
AcDbSymbolTable
70
0
0
ENDTAB
0
TABLE
2
UCS
5
7
100
AcDbSymbolTable
70
0
0
ENDTAB
0
TABLE
2
APPID
5
9
100
AcDbSymbolTable
70
2
0
APPID
5
12
100
AcDbSymbolTableRecord
100
AcDbRegAppTableRecord
2
ACAD
70
0
0
ENDTAB
0
TABLE
2
DIMSTYLE
5
A
100
AcDbSymbolTable
70
1
0
ENDTAB
0
TABLE
2
BLOCK_RECORD
5
1
100
AcDbSymbolTable
70
1
0
BLOCK_RECORD
5
1F
100
AcDbSymbolTableRecord
100
AcDbBlockTableRecord
2
*MODEL_SPACE
0
BLOCK_RECORD
5
1B
100
AcDbSymbolTableRecord
100
AcDbBlockTableRecord
2
*PAPER_SPACE
0
ENDTAB
0
ENDSEC
0
SECTION
2
BLOCKS
0
BLOCK
5
20
100
AcDbEntity
100
AcDbBlockBegin
2
*MODEL_SPACE
0
ENDBLK
5
21
100
AcDbEntity
100
AcDbBlockEnd
0
BLOCK
5
1C
100
AcDbEntity
100
AcDbBlockBegin
2
*PAPER_SPACE
0
ENDBLK
5
1D
100
AcDbEntity
100
AcDbBlockEnd
0
ENDSEC
0
SECTION
2
ENTITIES
0
LWPOLYLINE
5
100
100
AcDbEntity
8
0
100
AcDbPolyline
90
8
70
1
43
0.0
10
268.75660266216119
20
1.9999999999999172
10
268.75660266216124
20
72.000006866457696
10
284.7566320483146
20
72.000006866457696
10
284.7566320483146
20
479.99990539549486
10
268.7566212136569
20
479.99990539549486
10
268.7566212136569
20
549.99997558593736
10
228.75002818771361
20
549.99997784154789
10
228.75003358534718
20
2.0000022556103274
0
CIRCLE
5
101
100
AcDbEntity
8
0
100
AcDbCircle
10
259.0000141561037
20
155.68134489090167
30
3.5527136788005009e-14
40
3.0999999999999872
210
-3.0814879110194915e-33
220
-1.8991135491519597e-65
230
1
0
CIRCLE
5
102
100
AcDbEntity
8
0
100
AcDbCircle
10
239.0708470381461
20
125.12800940949246
30
3.5527136788005009e-14
40
1.7500000000000071
210
-3.0814879110194912e-33
220
-1.8991135491519597e-65
230
1
0
CIRCLE
5
103
100
AcDbEntity
8
0
100
AcDbCircle
10
259.0000141561037
20
394.57467392808326
30
3.5527136788005009e-14
40
3.0999999999999872
210
-3.0814879110194915e-33
220
-1.8991135491519597e-65
230
1
0
CIRCLE
5
104
100
AcDbEntity
8
0
100
AcDbCircle
10
239.0708470381461
20
455.6813448909017
30
7.1054273576010019e-14
40
3.0999999999999872
210
-3.0814879110194915e-33
220
-1.8991135491519597e-65
230
1
0
CIRCLE
5
105
100
AcDbEntity
8
0
100
AcDbCircle
10
239.0708470381461
20
394.57467392808326
30
3.5527136788005009e-14
40
3.0999999999999872
210
-3.0814879110194915e-33
220
-1.8991135491519597e-65
230
1
0
CIRCLE
5
106
100
AcDbEntity
8
0
100
AcDbCircle
10
239.0708470381461
20
94.574673928083243
30
3.5527136788005009e-14
40
3.0999999999999872
210
-3.0814879110194915e-33
220
-1.8991135491519597e-65
230
1
0
CIRCLE
5
107
100
AcDbEntity
8
0
100
AcDbCircle
10
259.0000141561037
20
125.12800940949246
30
3.5527136788005009e-14
40
3.1000000000000227
210
-3.0814879110194908e-33
220
-1.8991135491519597e-65
230
1
0
CIRCLE
5
108
100
AcDbEntity
8
0
100
AcDbCircle
10
239.0708470381461
20
155.68134489090167
30
3.5527136788005009e-14
40
3.0999999999999872
210
-3.0814879110194915e-33
220
-1.8991135491519597e-65
230
1
0
CIRCLE
5
109
100
AcDbEntity
8
0
100
AcDbCircle
10
259.0000141561037
20
425.12800940949251
30
7.1054273576010019e-14
40
3.1000000000000227
210
-3.0814879110194908e-33
220
-1.8991135491519597e-65
230
1
0
CIRCLE
5
110
100
AcDbEntity
8
0
100
AcDbCircle
10
259.0000141561037
20
455.6813448909017
30
7.1054273576010019e-14
40
3.0999999999999872
210
-3.0814879110194915e-33
220
-1.8991135491519597e-65
230
1
0
CIRCLE
5
111
100
AcDbEntity
8
0
100
AcDbCircle
10
239.0708470381461
20
425.12800940949251
30
7.1054273576010019e-14
40
1.7500000000000071
210
-3.0814879110194912e-33
220
-1.8991135491519597e-65
230
1
0
CIRCLE
5
112
100
AcDbEntity
8
0
100
AcDbCircle
10
259.0000141561037
20
94.574673928083243
30
3.5527136788005009e-14
40
3.0999999999999872
210
-3.0814879110194915e-33
220
-1.8991135491519597e-65
230
1
0
CIRCLE
5
113
100
AcDbEntity
8
0
100
AcDbCircle
10
259.0000141561037
20
155.68134489090167
30
0
40
3.0999999999999868
210
-8.6422381191151422e-47
220
-1.5469069313318278e-30
230
1
0
CIRCLE
5
114
100
AcDbEntity
8
0
100
AcDbCircle
10
239.0708470381461
20
125.12800940949246
30
0
40
1.7500000000000071
210
-8.6359318724258926e-47
220
-1.5469069313318278e-30
230
1
0
CIRCLE
5
115
100
AcDbEntity
8
0
100
AcDbCircle
10
259.0000141561037
20
394.57467392808326
30
0
40
3.0999999999999868
210
-8.6422381191151422e-47
220
-1.5469069313318278e-30
230
1
0
CIRCLE
5
116
100
AcDbEntity
8
0
100
AcDbCircle
10
239.0708470381461
20
455.6813448909017
30
0
40
3.0999999999999868
210
-8.6422381191151422e-47
220
-1.5469069313318278e-30
230
1
0
CIRCLE
5
117
100
AcDbEntity
8
0
100
AcDbCircle
10
239.0708470381461
20
394.57467392808326
30
0
40
3.0999999999999868
210
-8.6422381191151422e-47
220
-1.5469069313318278e-30
230
1
0
CIRCLE
5
118
100
AcDbEntity
8
0
100
AcDbCircle
10
239.0708470381461
20
94.574673928083243
30
0
40
3.0999999999999868
210
-8.6422381191151422e-47
220
-1.5469069313318278e-30
230
1
0
CIRCLE
5
119
100
AcDbEntity
8
0
100
AcDbCircle
10
259.0000141561037
20
125.12800940949246
30
0
40
3.1000000000000227
210
-8.6422381191151422e-47
220
-1.5469069313318278e-30
230
1
0
CIRCLE
5
120
100
AcDbEntity
8
0
100
AcDbCircle
10
239.0708470381461
20
155.68134489090167
30
0
40
3.0999999999999868
210
-8.6422381191151422e-47
220
-1.5469069313318278e-30
230
1
0
CIRCLE
5
121
100
AcDbEntity
8
0
100
AcDbCircle
10
259.0000141561037
20
425.12800940949251
30
0
40
3.1000000000000227
210
-8.6422381191151422e-47
220
-1.5469069313318278e-30
230
1
0
CIRCLE
5
122
100
AcDbEntity
8
0
100
AcDbCircle
10
259.0000141561037
20
455.6813448909017
30
0
40
3.0999999999999868
210
-8.6422381191151422e-47
220
-1.5469069313318278e-30
230
1
0
CIRCLE
5
123
100
AcDbEntity
8
0
100
AcDbCircle
10
239.0708470381461
20
425.12800940949251
30
0
40
1.7500000000000071
210
-8.6359318724258926e-47
220
-1.5469069313318278e-30
230
1
0
CIRCLE
5
124
100
AcDbEntity
8
0
100
AcDbCircle
10
259.0000141561037
20
94.574673928083243
30
0
40
3.0999999999999868
210
-8.6422381191151422e-47
220
-1.5469069313318278e-30
230
1
0
LWPOLYLINE
5
125
100
AcDbEntity
8
0
100
AcDbPolyline
90
8
70
1
43
0.0
10
268.75660266216119
20
1.9999999999999172
10
268.75660266216124
20
72.000006866457696
10
284.7566320483146
20
72.000006866457696
10
284.7566320483146
20
479.99990539549486
10
268.7566212136569
20
479.99990539549486
10
268.7566212136569
20
549.99997558593736
10
228.75002818771361
20
549.99997784154789
10
228.75003358534718
20
2.0000022556103403
0
ENDSEC
0
SECTION
2
OBJECTS
0
DICTIONARY
5
C
100
AcDbDictionary
3
ACAD_GROUP
350
D
3
ACAD_MLINESTYLE
350
17
0
DICTIONARY
5
D
100
AcDbDictionary
0
DICTIONARY
5
1A
330
C
100
AcDbDictionary
0
DICTIONARY
5
17
100
AcDbDictionary
0
ENDSEC
0
EOF
